<svg width="1863" height="36" viewBox="0 0 1863 36" fill="none" xmlns="http://www.w3.org/2000/svg">
<path d="M20.3329 1.83979L10.1506 3.7113L0 1.83979L10.1506 0L20.3329 1.83979Z" fill="#F5F5F5"/>
<path d="M28.263 1.83979L18.0807 3.7113L7.93018 1.83979L18.0807 0L28.263 1.83979Z" fill="#F5F5F5"/>
<path d="M36.1932 1.83979L26.0109 3.7113L15.8604 1.83979L26.0109 0L36.1932 1.83979Z" fill="#F5F5F5"/>
<path d="M44.1231 1.83979L33.9408 3.7113L23.7903 1.83979L33.9408 0L44.1231 1.83979Z" fill="#F5F5F5"/>
<path d="M52.0533 1.83979L41.871 3.7113L31.7205 1.83979L41.871 0L52.0533 1.83979Z" fill="#F5F5F5"/>
<path d="M59.9835 1.83979L49.8012 3.7113L39.6506 1.83979L49.8012 0L59.9835 1.83979Z" fill="#F5F5F5"/>
<path d="M67.9137 1.83979L57.7314 3.7113L47.5808 1.83979L57.7314 0L67.9137 1.83979Z" fill="#F5F5F5"/>
<path d="M75.8436 1.83979L65.6613 3.7113L55.5107 1.83979L65.6613 0L75.8436 1.83979Z" fill="#F5F5F5"/>
<path d="M20.3329 9.76948L10.1506 11.641L0 9.76948L10.1506 7.92969L20.3329 9.76948Z" fill="#F5F5F5"/>
<path d="M28.263 9.76948L18.0807 11.641L7.93018 9.76948L18.0807 7.92969L28.263 9.76948Z" fill="#F5F5F5"/>
<path d="M20.3329 17.7011L10.1506 19.5726L0 17.7011L10.1506 15.8613L20.3329 17.7011Z" fill="#F5F5F5"/>
<path d="M28.263 17.7011L18.0807 19.5726L7.93018 17.7011L18.0807 15.8613L28.263 17.7011Z" fill="#F5F5F5"/>
<path d="M20.3329 25.6308L10.1506 27.5023L0 25.6308L10.1506 23.791L20.3329 25.6308Z" fill="#F5F5F5"/>
<path d="M28.263 25.6308L18.0807 27.5023L7.93018 25.6308L18.0807 23.791L28.263 25.6308Z" fill="#F5F5F5"/>
<path d="M20.3329 33.5605L10.1506 35.432L0 33.5605L10.1506 31.7207L20.3329 33.5605Z" fill="#F5F5F5"/>
<path d="M28.263 33.5605L18.0807 35.432L7.93018 33.5605L18.0807 31.7207L28.263 33.5605Z" fill="#F5F5F5"/>
<path d="M36.1932 33.5605L26.0109 35.432L15.8604 33.5605L26.0109 31.7207L36.1932 33.5605Z" fill="#F5F5F5"/>
<path d="M44.1231 33.5605L33.9408 35.432L23.7903 33.5605L33.9408 31.7207L44.1231 33.5605Z" fill="#F5F5F5"/>
<path d="M52.0533 33.5605L41.871 35.432L31.7205 33.5605L41.871 31.7207L52.0533 33.5605Z" fill="#F5F5F5"/>
<path d="M59.9835 33.5605L49.8012 35.432L39.6506 33.5605L49.8012 31.7207L59.9835 33.5605Z" fill="#F5F5F5"/>
<path d="M67.9137 33.5605L57.7314 35.432L47.5808 33.5605L57.7314 31.7207L67.9137 33.5605Z" fill="#F5F5F5"/>
<path d="M75.8436 33.5605L65.6613 35.432L55.5107 33.5605L65.6613 31.7207L75.8436 33.5605Z" fill="#F5F5F5"/>
<path d="M83.7738 1.83979L73.5915 3.7113L63.4409 1.83979L73.5915 0L83.7738 1.83979Z" fill="#F5F5F5"/>
<path d="M83.7738 9.76948L73.5915 11.641L63.4409 9.76948L73.5915 7.92969L83.7738 9.76948Z" fill="#F5F5F5"/>
<path d="M83.7738 33.5605L73.5915 35.432L63.4409 33.5605L73.5915 31.7207L83.7738 33.5605Z" fill="#F5F5F5"/>
<path d="M83.7738 25.6308L73.5915 27.5023L63.4409 25.6308L73.5915 23.791L83.7738 25.6308Z" fill="#F5F5F5"/>
<path d="M91.7039 1.83979L81.5217 3.7113L71.3711 1.83979L81.5217 0L91.7039 1.83979Z" fill="#F5F5F5"/>
<path d="M91.7039 9.76948L81.5217 11.641L71.3711 9.76948L81.5217 7.92969L91.7039 9.76948Z" fill="#F5F5F5"/>
<path d="M91.7039 33.5605L81.5217 35.432L71.3711 33.5605L81.5217 31.7207L91.7039 33.5605Z" fill="#F5F5F5"/>
<path d="M91.7039 25.6308L81.5217 27.5023L71.3711 25.6308L81.5217 23.791L91.7039 25.6308Z" fill="#F5F5F5"/>
<path d="M1687.56 1.83979L1677.41 3.7113L1667.23 1.83979L1677.41 0L1687.56 1.83979Z" fill="#F5F5F5"/>
<path d="M1695.49 1.83979L1685.34 3.7113L1675.16 1.83979L1685.34 0L1695.49 1.83979Z" fill="#F5F5F5"/>
<path d="M1703.42 1.83979L1693.27 3.7113L1683.09 1.83979L1693.27 0L1703.42 1.83979Z" fill="#F5F5F5"/>
<path d="M1711.35 1.83979L1701.2 3.7113L1691.02 1.83979L1701.2 0L1711.35 1.83979Z" fill="#F5F5F5"/>
<path d="M1719.28 1.83979L1709.13 3.7113L1698.95 1.83979L1709.13 0L1719.28 1.83979Z" fill="#F5F5F5"/>
<path d="M1727.21 1.83979L1717.06 3.7113L1706.88 1.83979L1717.06 0L1727.21 1.83979Z" fill="#F5F5F5"/>
<path d="M1735.14 1.83979L1724.99 3.7113L1714.81 1.83979L1724.99 0L1735.14 1.83979Z" fill="#F5F5F5"/>
<path d="M1743.07 1.83979L1732.92 3.7113L1722.74 1.83979L1732.92 0L1743.07 1.83979Z" fill="#F5F5F5"/>
<path d="M1687.56 9.76948L1677.41 11.641L1667.23 9.76948L1677.41 7.92969L1687.56 9.76948Z" fill="#F5F5F5"/>
<path d="M1695.49 9.76948L1685.34 11.641L1675.16 9.76948L1685.34 7.92969L1695.49 9.76948Z" fill="#F5F5F5"/>
<path d="M1687.56 17.7011L1677.41 19.5726L1667.23 17.7011L1677.41 15.8613L1687.56 17.7011Z" fill="#F5F5F5"/>
<path d="M1695.49 17.7011L1685.34 19.5726L1675.16 17.7011L1685.34 15.8613L1695.49 17.7011Z" fill="#F5F5F5"/>
<path d="M1687.56 25.6308L1677.41 27.5023L1667.23 25.6308L1677.41 23.791L1687.56 25.6308Z" fill="#F5F5F5"/>
<path d="M1695.49 25.6308L1685.34 27.5023L1675.16 25.6308L1685.34 23.791L1695.49 25.6308Z" fill="#F5F5F5"/>
<path d="M1687.56 33.5605L1677.41 35.432L1667.23 33.5605L1677.41 31.7207L1687.56 33.5605Z" fill="#F5F5F5"/>
<path d="M1695.49 33.5605L1685.34 35.432L1675.16 33.5605L1685.34 31.7207L1695.49 33.5605Z" fill="#F5F5F5"/>
<path d="M1703.42 33.5605L1693.27 35.432L1683.09 33.5605L1693.27 31.7207L1703.42 33.5605Z" fill="#F5F5F5"/>
<path d="M1711.35 33.5605L1701.2 35.432L1691.02 33.5605L1701.2 31.7207L1711.35 33.5605Z" fill="#F5F5F5"/>
<path d="M1719.28 33.5605L1709.13 35.432L1698.95 33.5605L1709.13 31.7207L1719.28 33.5605Z" fill="#F5F5F5"/>
<path d="M1727.21 33.5605L1717.06 35.432L1706.88 33.5605L1717.06 31.7207L1727.21 33.5605Z" fill="#F5F5F5"/>
<path d="M1735.14 33.5605L1724.99 35.432L1714.81 33.5605L1724.99 31.7207L1735.14 33.5605Z" fill="#F5F5F5"/>
<path d="M1743.07 33.5605L1732.92 35.432L1722.74 33.5605L1732.92 31.7207L1743.07 33.5605Z" fill="#F5F5F5"/>
<path d="M1751 1.83979L1740.85 3.7113L1730.67 1.83979L1740.85 0L1751 1.83979Z" fill="#F5F5F5"/>
<path d="M1751 9.76948L1740.85 11.641L1730.67 9.76948L1740.85 7.92969L1751 9.76948Z" fill="#F5F5F5"/>
<path d="M1751 33.5605L1740.85 35.432L1730.67 33.5605L1740.85 31.7207L1751 33.5605Z" fill="#F5F5F5"/>
<path d="M1751 25.6308L1740.85 27.5023L1730.67 25.6308L1740.85 23.791L1751 25.6308Z" fill="#F5F5F5"/>
<path d="M1758.93 1.83979L1748.78 3.7113L1738.6 1.83979L1748.78 0L1758.93 1.83979Z" fill="#F5F5F5"/>
<path d="M1758.93 9.76948L1748.78 11.641L1738.6 9.76948L1748.78 7.92969L1758.93 9.76948Z" fill="#F5F5F5"/>
<path d="M1758.93 33.5605L1748.78 35.432L1738.6 33.5605L1748.78 31.7207L1758.93 33.5605Z" fill="#F5F5F5"/>
<path d="M1758.93 25.6308L1748.78 27.5023L1738.6 25.6308L1748.78 23.791L1758.93 25.6308Z" fill="#F5F5F5"/>
<path d="M1790.66 1.83979L1780.5 3.7113L1770.32 1.83979L1780.5 0L1790.66 1.83979Z" fill="#F5F5F5"/>
<path d="M1798.59 1.83979L1788.43 3.7113L1778.25 1.83979L1788.43 0L1798.59 1.83979Z" fill="#F5F5F5"/>
<path d="M1806.52 9.76948L1796.36 11.641L1786.18 9.76948L1796.36 7.92969L1806.52 9.76948Z" fill="#F5F5F5"/>
<path d="M1814.45 9.76948L1804.29 11.641L1794.11 9.76948L1804.29 7.92969L1814.45 9.76948Z" fill="#F5F5F5"/>
<path d="M1838.24 9.76948L1828.09 11.641L1817.9 9.76948L1828.09 7.92969L1838.24 9.76948Z" fill="#F5F5F5"/>
<path d="M1846.17 9.76948L1836.02 11.641L1825.83 9.76948L1836.02 7.92969L1846.17 9.76948Z" fill="#F5F5F5"/>
<path d="M1838.24 9.76948L1828.09 11.641L1817.9 9.76948L1828.09 7.92969L1838.24 9.76948Z" fill="#F5F5F5"/>
<path d="M1822.38 17.7011L1812.22 19.5726L1802.04 17.7011L1812.22 15.8613L1822.38 17.7011Z" fill="#F5F5F5"/>
<path d="M1822.38 25.6308L1812.22 27.5023L1802.04 25.6308L1812.22 23.791L1822.38 25.6308Z" fill="#F5F5F5"/>
<path d="M1830.31 25.6308L1820.16 27.5023L1809.97 25.6308L1820.16 23.791L1830.31 25.6308Z" fill="#F5F5F5"/>
<path d="M1822.38 33.5605L1812.22 35.432L1802.04 33.5605L1812.22 31.7207L1822.38 33.5605Z" fill="#F5F5F5"/>
<path d="M1830.31 33.5605L1820.16 35.432L1809.97 33.5605L1820.16 31.7207L1830.31 33.5605Z" fill="#F5F5F5"/>
<path d="M1830.31 17.7011L1820.16 19.5726L1809.97 17.7011L1820.16 15.8613L1830.31 17.7011Z" fill="#F5F5F5"/>
<path d="M1862.03 1.83979L1851.88 3.7113L1841.69 1.83979L1851.88 0L1862.03 1.83979Z" fill="#F5F5F5"/>
<path d="M1854.1 1.83979L1843.95 3.7113L1833.76 1.83979L1843.95 0L1854.1 1.83979Z" fill="#F5F5F5"/>
<path d="M226.516 1.83979L216.334 3.7113L206.184 1.83979L216.334 0L226.516 1.83979Z" fill="#F5F5F5"/>
<path d="M234.447 1.83979L224.264 3.7113L214.114 1.83979L224.264 0L234.447 1.83979Z" fill="#F5F5F5"/>
<path d="M242.377 1.83979L232.194 3.7113L222.044 1.83979L232.194 0L242.377 1.83979Z" fill="#F5F5F5"/>
<path d="M250.307 1.83979L240.124 3.7113L229.974 1.83979L240.124 0L250.307 1.83979Z" fill="#F5F5F5"/>
<path d="M258.237 1.83979L248.055 3.7113L237.904 1.83979L248.055 0L258.237 1.83979Z" fill="#F5F5F5"/>
<path d="M266.167 1.83979L255.985 3.7113L245.834 1.83979L255.985 0L266.167 1.83979Z" fill="#F5F5F5"/>
<path d="M274.097 1.83979L263.915 3.7113L253.764 1.83979L263.915 0L274.097 1.83979Z" fill="#F5F5F5"/>
<path d="M282.027 1.83979L271.845 3.7113L261.694 1.83979L271.845 0L282.027 1.83979Z" fill="#F5F5F5"/>
<path d="M226.516 9.76948L216.334 11.641L206.184 9.76948L216.334 7.92969L226.516 9.76948Z" fill="#F5F5F5"/>
<path d="M234.447 9.76948L224.264 11.641L214.114 9.76948L224.264 7.92969L234.447 9.76948Z" fill="#F5F5F5"/>
<path d="M226.516 17.7011L216.334 19.5726L206.184 17.7011L216.334 15.8613L226.516 17.7011Z" fill="#F5F5F5"/>
<path d="M234.447 17.7011L224.264 19.5726L214.114 17.7011L224.264 15.8613L234.447 17.7011Z" fill="#F5F5F5"/>
<path d="M226.516 25.6308L216.334 27.5023L206.184 25.6308L216.334 23.791L226.516 25.6308Z" fill="#F5F5F5"/>
<path d="M234.447 25.6308L224.264 27.5023L214.114 25.6308L224.264 23.791L234.447 25.6308Z" fill="#F5F5F5"/>
<path d="M226.516 33.5605L216.334 35.432L206.184 33.5605L216.334 31.7207L226.516 33.5605Z" fill="#F5F5F5"/>
<path d="M234.447 33.5605L224.264 35.432L214.114 33.5605L224.264 31.7207L234.447 33.5605Z" fill="#F5F5F5"/>
<path d="M242.377 33.5605L232.194 35.432L222.044 33.5605L232.194 31.7207L242.377 33.5605Z" fill="#F5F5F5"/>
<path d="M250.307 33.5605L240.124 35.432L229.974 33.5605L240.124 31.7207L250.307 33.5605Z" fill="#F5F5F5"/>
<path d="M258.237 33.5605L248.055 35.432L237.904 33.5605L248.055 31.7207L258.237 33.5605Z" fill="#F5F5F5"/>
<path d="M266.167 33.5605L255.985 35.432L245.834 33.5605L255.985 31.7207L266.167 33.5605Z" fill="#F5F5F5"/>
<path d="M274.097 33.5605L263.915 35.432L253.764 33.5605L263.915 31.7207L274.097 33.5605Z" fill="#F5F5F5"/>
<path d="M282.027 33.5605L271.845 35.432L261.694 33.5605L271.845 31.7207L282.027 33.5605Z" fill="#F5F5F5"/>
<path d="M289.957 1.83979L279.775 3.7113L269.625 1.83979L279.775 0L289.957 1.83979Z" fill="#F5F5F5"/>
<path d="M289.957 33.5605L279.775 35.432L269.625 33.5605L279.775 31.7207L289.957 33.5605Z" fill="#F5F5F5"/>
<path d="M289.957 25.6308L279.775 27.5023L269.625 25.6308L279.775 23.791L289.957 25.6308Z" fill="#F5F5F5"/>
<path d="M297.888 1.83979L287.705 3.7113L277.555 1.83979L287.705 0L297.888 1.83979Z" fill="#F5F5F5"/>
<path d="M297.888 33.5605L287.705 35.432L277.555 33.5605L287.705 31.7207L297.888 33.5605Z" fill="#F5F5F5"/>
<path d="M297.888 25.6308L287.705 27.5023L277.555 25.6308L287.705 23.791L297.888 25.6308Z" fill="#F5F5F5"/>
<path d="M289.957 17.7011L279.775 19.5726L269.625 17.7011L279.775 15.8613L289.957 17.7011Z" fill="#F5F5F5"/>
<path d="M282.027 17.7011L271.845 19.5726L261.694 17.7011L271.845 15.8613L282.027 17.7011Z" fill="#F5F5F5"/>
<path d="M274.097 17.7011L263.915 19.5726L253.764 17.7011L263.915 15.8613L274.097 17.7011Z" fill="#F5F5F5"/>
<path d="M297.888 17.7011L287.705 19.5726L277.555 17.7011L287.705 15.8613L297.888 17.7011Z" fill="#F5F5F5"/>
<path d="M123.425 1.83979L113.242 3.7113L103.092 1.83979L113.242 0L123.425 1.83979Z" fill="#F5F5F5"/>
<path d="M131.355 1.83979L121.173 3.7113L111.022 1.83979L121.173 0L131.355 1.83979Z" fill="#F5F5F5"/>
<path d="M139.285 1.83979L129.103 3.7113L118.952 1.83979L129.103 0L139.285 1.83979Z" fill="#F5F5F5"/>
<path d="M147.215 1.83979L137.033 3.7113L126.882 1.83979L137.033 0L147.215 1.83979Z" fill="#F5F5F5"/>
<path d="M155.145 1.83979L144.963 3.7113L134.812 1.83979L144.963 0L155.145 1.83979Z" fill="#F5F5F5"/>
<path d="M163.075 1.83979L152.893 3.7113L142.742 1.83979L152.893 0L163.075 1.83979Z" fill="#F5F5F5"/>
<path d="M171.005 1.83979L160.823 3.7113L150.673 1.83979L160.823 0L171.005 1.83979Z" fill="#F5F5F5"/>
<path d="M178.936 1.83979L168.753 3.7113L158.603 1.83979L168.753 0L178.936 1.83979Z" fill="#F5F5F5"/>
<path d="M123.425 9.76948L113.242 11.641L103.092 9.76948L113.242 7.92969L123.425 9.76948Z" fill="#F5F5F5"/>
<path d="M131.355 9.76948L121.173 11.641L111.022 9.76948L121.173 7.92969L131.355 9.76948Z" fill="#F5F5F5"/>
<path d="M123.425 17.7011L113.242 19.5726L103.092 17.7011L113.242 15.8613L123.425 17.7011Z" fill="#F5F5F5"/>
<path d="M131.355 17.7011L121.173 19.5726L111.022 17.7011L121.173 15.8613L131.355 17.7011Z" fill="#F5F5F5"/>
<path d="M123.425 25.6308L113.242 27.5023L103.092 25.6308L113.242 23.791L123.425 25.6308Z" fill="#F5F5F5"/>
<path d="M131.355 25.6308L121.173 27.5023L111.022 25.6308L121.173 23.791L131.355 25.6308Z" fill="#F5F5F5"/>
<path d="M123.425 33.5605L113.242 35.432L103.092 33.5605L113.242 31.7207L123.425 33.5605Z" fill="#F5F5F5"/>
<path d="M131.355 33.5605L121.173 35.432L111.022 33.5605L121.173 31.7207L131.355 33.5605Z" fill="#F5F5F5"/>
<path d="M139.285 33.5605L129.103 35.432L118.952 33.5605L129.103 31.7207L139.285 33.5605Z" fill="#F5F5F5"/>
<path d="M147.215 33.5605L137.033 35.432L126.882 33.5605L137.033 31.7207L147.215 33.5605Z" fill="#F5F5F5"/>
<path d="M155.145 33.5605L144.963 35.432L134.812 33.5605L144.963 31.7207L155.145 33.5605Z" fill="#F5F5F5"/>
<path d="M163.075 33.5605L152.893 35.432L142.742 33.5605L152.893 31.7207L163.075 33.5605Z" fill="#F5F5F5"/>
<path d="M171.005 33.5605L160.823 35.432L150.673 33.5605L160.823 31.7207L171.005 33.5605Z" fill="#F5F5F5"/>
<path d="M178.936 33.5605L168.753 35.432L158.603 33.5605L168.753 31.7207L178.936 33.5605Z" fill="#F5F5F5"/>
<path d="M186.866 1.83979L176.683 3.7113L166.533 1.83979L176.683 0L186.866 1.83979Z" fill="#F5F5F5"/>
<path d="M186.866 9.76948L176.683 11.641L166.533 9.76948L176.683 7.92969L186.866 9.76948Z" fill="#F5F5F5"/>
<path d="M186.866 17.7011L176.683 19.5726L166.533 17.7011L176.683 15.8613L186.866 17.7011Z" fill="#F5F5F5"/>
<path d="M194.796 17.7011L184.613 19.5726L174.463 17.7011L184.613 15.8613L194.796 17.7011Z" fill="#F5F5F5"/>
<path d="M186.866 33.5605L176.683 35.432L166.533 33.5605L176.683 31.7207L186.866 33.5605Z" fill="#F5F5F5"/>
<path d="M186.866 25.6308L176.683 27.5023L166.533 25.6308L176.683 23.791L186.866 25.6308Z" fill="#F5F5F5"/>
<path d="M194.796 1.83979L184.613 3.7113L174.463 1.83979L184.613 0L194.796 1.83979Z" fill="#F5F5F5"/>
<path d="M194.796 9.76948L184.613 11.641L174.463 9.76948L184.613 7.92969L194.796 9.76948Z" fill="#F5F5F5"/>
<path d="M194.796 33.5605L184.613 35.432L174.463 33.5605L184.613 31.7207L194.796 33.5605Z" fill="#F5F5F5"/>
<path d="M194.796 25.6308L184.613 27.5023L174.463 25.6308L184.613 23.791L194.796 25.6308Z" fill="#F5F5F5"/>
<path d="M1067.11 1.83979L1056.93 3.7113L1046.78 1.83979L1056.93 0L1067.11 1.83979Z" fill="#F5F5F5"/>
<path d="M1075.04 1.83979L1064.86 3.7113L1054.71 1.83979L1064.86 0L1075.04 1.83979Z" fill="#F5F5F5"/>
<path d="M1067.11 9.76948L1056.93 11.641L1046.78 9.76948L1056.93 7.92969L1067.11 9.76948Z" fill="#F5F5F5"/>
<path d="M1075.04 9.76948L1064.86 11.641L1054.71 9.76948L1064.86 7.92969L1075.04 9.76948Z" fill="#F5F5F5"/>
<path d="M1067.11 17.7011L1056.93 19.5726L1046.78 17.7011L1056.93 15.8613L1067.11 17.7011Z" fill="#F5F5F5"/>
<path d="M1075.04 17.7011L1064.86 19.5726L1054.71 17.7011L1064.86 15.8613L1075.04 17.7011Z" fill="#F5F5F5"/>
<path d="M1067.11 25.6308L1056.93 27.5023L1046.78 25.6308L1056.93 23.791L1067.11 25.6308Z" fill="#F5F5F5"/>
<path d="M1075.04 25.6308L1064.86 27.5023L1054.71 25.6308L1064.86 23.791L1075.04 25.6308Z" fill="#F5F5F5"/>
<path d="M1067.11 33.5605L1056.93 35.432L1046.78 33.5605L1056.93 31.7207L1067.11 33.5605Z" fill="#F5F5F5"/>
<path d="M1075.04 33.5605L1064.86 35.432L1054.71 33.5605L1064.86 31.7207L1075.04 33.5605Z" fill="#F5F5F5"/>
<path d="M1082.97 33.5605L1072.79 35.432L1062.64 33.5605L1072.79 31.7207L1082.97 33.5605Z" fill="#F5F5F5"/>
<path d="M1090.9 33.5605L1080.72 35.432L1070.57 33.5605L1080.72 31.7207L1090.9 33.5605Z" fill="#F5F5F5"/>
<path d="M1098.83 33.5605L1088.65 35.432L1078.5 33.5605L1088.65 31.7207L1098.83 33.5605Z" fill="#F5F5F5"/>
<path d="M1106.76 33.5605L1096.58 35.432L1086.43 33.5605L1096.58 31.7207L1106.76 33.5605Z" fill="#F5F5F5"/>
<path d="M1114.69 33.5605L1104.51 35.432L1094.36 33.5605L1104.51 31.7207L1114.69 33.5605Z" fill="#F5F5F5"/>
<path d="M1122.62 33.5605L1112.44 35.432L1102.29 33.5605L1112.44 31.7207L1122.62 33.5605Z" fill="#F5F5F5"/>
<path d="M1130.55 1.83979L1120.37 3.7113L1110.22 1.83979L1120.37 0L1130.55 1.83979Z" fill="#F5F5F5"/>
<path d="M1130.55 9.76948L1120.37 11.641L1110.22 9.76948L1120.37 7.92969L1130.55 9.76948Z" fill="#F5F5F5"/>
<path d="M1130.55 17.7011L1120.37 19.5726L1110.22 17.7011L1120.37 15.8613L1130.55 17.7011Z" fill="#F5F5F5"/>
<path d="M1138.48 17.7011L1128.3 19.5726L1118.15 17.7011L1128.3 15.8613L1138.48 17.7011Z" fill="#F5F5F5"/>
<path d="M1130.55 33.5605L1120.37 35.432L1110.22 33.5605L1120.37 31.7207L1130.55 33.5605Z" fill="#F5F5F5"/>
<path d="M1130.55 25.6308L1120.37 27.5023L1110.22 25.6308L1120.37 23.791L1130.55 25.6308Z" fill="#F5F5F5"/>
<path d="M1138.48 1.83979L1128.3 3.7113L1118.15 1.83979L1128.3 0L1138.48 1.83979Z" fill="#F5F5F5"/>
<path d="M1138.48 9.76948L1128.3 11.641L1118.15 9.76948L1128.3 7.92969L1138.48 9.76948Z" fill="#F5F5F5"/>
<path d="M1138.48 33.5605L1128.3 35.432L1118.15 33.5605L1128.3 31.7207L1138.48 33.5605Z" fill="#F5F5F5"/>
<path d="M1138.48 25.6308L1128.3 27.5023L1118.15 25.6308L1128.3 23.791L1138.48 25.6308Z" fill="#F5F5F5"/>
<path d="M1170.2 1.83979L1160.02 3.7113L1149.87 1.83979L1160.02 0L1170.2 1.83979Z" fill="#F5F5F5"/>
<path d="M1178.13 1.83979L1167.95 3.7113L1157.8 1.83979L1167.95 0L1178.13 1.83979Z" fill="#F5F5F5"/>
<path d="M1170.2 9.76948L1160.02 11.641L1149.87 9.76948L1160.02 7.92969L1170.2 9.76948Z" fill="#F5F5F5"/>
<path d="M1178.13 9.76948L1167.95 11.641L1157.8 9.76948L1167.95 7.92969L1178.13 9.76948Z" fill="#F5F5F5"/>
<path d="M1170.2 17.7011L1160.02 19.5726L1149.87 17.7011L1160.02 15.8613L1170.2 17.7011Z" fill="#F5F5F5"/>
<path d="M1178.13 17.7011L1167.95 19.5726L1157.8 17.7011L1167.95 15.8613L1178.13 17.7011Z" fill="#F5F5F5"/>
<path d="M1170.2 25.6308L1160.02 27.5023L1149.87 25.6308L1160.02 23.791L1170.2 25.6308Z" fill="#F5F5F5"/>
<path d="M1178.13 25.6308L1167.95 27.5023L1157.8 25.6308L1167.95 23.791L1178.13 25.6308Z" fill="#F5F5F5"/>
<path d="M1170.2 33.5605L1160.02 35.432L1149.87 33.5605L1160.02 31.7207L1170.2 33.5605Z" fill="#F5F5F5"/>
<path d="M1178.13 33.5605L1167.95 35.432L1157.8 33.5605L1167.95 31.7207L1178.13 33.5605Z" fill="#F5F5F5"/>
<path d="M1233.64 1.83979L1223.46 3.7113L1213.31 1.83979L1223.46 0L1233.64 1.83979Z" fill="#F5F5F5"/>
<path d="M1225.71 1.83979L1215.53 3.7113L1205.38 1.83979L1215.53 0L1225.71 1.83979Z" fill="#F5F5F5"/>
<path d="M1217.78 1.83979L1207.6 3.7113L1197.45 1.83979L1207.6 0L1217.78 1.83979Z" fill="#F5F5F5"/>
<path d="M1209.85 1.83979L1199.67 3.7113L1189.52 1.83979L1199.67 0L1209.85 1.83979Z" fill="#F5F5F5"/>
<path d="M1201.92 1.83979L1191.74 3.7113L1181.59 1.83979L1191.74 0L1201.92 1.83979Z" fill="#F5F5F5"/>
<path d="M1193.99 1.83979L1183.81 3.7113L1173.66 1.83979L1183.81 0L1193.99 1.83979Z" fill="#F5F5F5"/>
<path d="M1186.06 1.83979L1175.88 3.7113L1165.73 1.83979L1175.88 0L1186.06 1.83979Z" fill="#F5F5F5"/>
<path d="M1233.64 9.76948L1223.46 11.641L1213.31 9.76948L1223.46 7.92969L1233.64 9.76948Z" fill="#F5F5F5"/>
<path d="M1233.64 17.7011L1223.46 19.5726L1213.31 17.7011L1223.46 15.8613L1233.64 17.7011Z" fill="#F5F5F5"/>
<path d="M1225.71 17.7011L1215.53 19.5726L1205.38 17.7011L1215.53 15.8613L1225.71 17.7011Z" fill="#F5F5F5"/>
<path d="M1217.78 17.7011L1207.6 19.5726L1197.45 17.7011L1207.6 15.8613L1217.78 17.7011Z" fill="#F5F5F5"/>
<path d="M1209.85 17.7011L1199.67 19.5726L1189.52 17.7011L1199.67 15.8613L1209.85 17.7011Z" fill="#F5F5F5"/>
<path d="M1201.92 17.7011L1191.74 19.5726L1181.59 17.7011L1191.74 15.8613L1201.92 17.7011Z" fill="#F5F5F5"/>
<path d="M1193.99 17.7011L1183.81 19.5726L1173.66 17.7011L1183.81 15.8613L1193.99 17.7011Z" fill="#F5F5F5"/>
<path d="M1186.06 17.7011L1175.88 19.5726L1165.73 17.7011L1175.88 15.8613L1186.06 17.7011Z" fill="#F5F5F5"/>
<path d="M1241.57 9.76948L1231.39 11.641L1221.24 9.76948L1231.39 7.92969L1241.57 9.76948Z" fill="#F5F5F5"/>
<path d="M1271.93 1.83979L1261.75 3.7113L1251.6 1.83979L1261.75 0L1271.93 1.83979Z" fill="#F5F5F5"/>
<path d="M1279.86 1.83979L1269.68 3.7113L1259.53 1.83979L1269.68 0L1279.86 1.83979Z" fill="#F5F5F5"/>
<path d="M1271.93 9.76948L1261.75 11.641L1251.6 9.76948L1261.75 7.92969L1271.93 9.76948Z" fill="#F5F5F5"/>
<path d="M1279.86 9.76948L1269.68 11.641L1259.53 9.76948L1269.68 7.92969L1279.86 9.76948Z" fill="#F5F5F5"/>
<path d="M1271.93 17.7011L1261.75 19.5726L1251.6 17.7011L1261.75 15.8613L1271.93 17.7011Z" fill="#F5F5F5"/>
<path d="M1279.86 17.7011L1269.68 19.5726L1259.53 17.7011L1269.68 15.8613L1279.86 17.7011Z" fill="#F5F5F5"/>
<path d="M1271.93 25.6308L1261.75 27.5023L1251.6 25.6308L1261.75 23.791L1271.93 25.6308Z" fill="#F5F5F5"/>
<path d="M1279.86 25.6308L1269.68 27.5023L1259.53 25.6308L1269.68 23.791L1279.86 25.6308Z" fill="#F5F5F5"/>
<path d="M1271.93 33.5605L1261.75 35.432L1251.6 33.5605L1261.75 31.7207L1271.93 33.5605Z" fill="#F5F5F5"/>
<path d="M1279.86 33.5605L1269.68 35.432L1259.53 33.5605L1269.68 31.7207L1279.86 33.5605Z" fill="#F5F5F5"/>
<path d="M1335.37 1.83979L1325.19 3.7113L1315.04 1.83979L1325.19 0L1335.37 1.83979Z" fill="#F5F5F5"/>
<path d="M1327.44 1.83979L1317.26 3.7113L1307.11 1.83979L1317.26 0L1327.44 1.83979Z" fill="#F5F5F5"/>
<path d="M1319.51 1.83979L1309.33 3.7113L1299.18 1.83979L1309.33 0L1319.51 1.83979Z" fill="#F5F5F5"/>
<path d="M1311.58 1.83979L1301.4 3.7113L1291.25 1.83979L1301.4 0L1311.58 1.83979Z" fill="#F5F5F5"/>
<path d="M1303.65 1.83979L1293.47 3.7113L1283.32 1.83979L1293.47 0L1303.65 1.83979Z" fill="#F5F5F5"/>
<path d="M1295.72 1.83979L1285.54 3.7113L1275.39 1.83979L1285.54 0L1295.72 1.83979Z" fill="#F5F5F5"/>
<path d="M1287.79 1.83979L1277.61 3.7113L1267.46 1.83979L1277.61 0L1287.79 1.83979Z" fill="#F5F5F5"/>
<path d="M1335.37 9.76948L1325.19 11.641L1315.04 9.76948L1325.19 7.92969L1335.37 9.76948Z" fill="#F5F5F5"/>
<path d="M1335.37 17.7011L1325.19 19.5726L1315.04 17.7011L1325.19 15.8613L1335.37 17.7011Z" fill="#F5F5F5"/>
<path d="M1327.44 17.7011L1317.26 19.5726L1307.11 17.7011L1317.26 15.8613L1327.44 17.7011Z" fill="#F5F5F5"/>
<path d="M1319.51 17.7011L1309.33 19.5726L1299.18 17.7011L1309.33 15.8613L1319.51 17.7011Z" fill="#F5F5F5"/>
<path d="M1311.58 17.7011L1301.4 19.5726L1291.25 17.7011L1301.4 15.8613L1311.58 17.7011Z" fill="#F5F5F5"/>
<path d="M1303.65 17.7011L1293.47 19.5726L1283.32 17.7011L1293.47 15.8613L1303.65 17.7011Z" fill="#F5F5F5"/>
<path d="M1295.72 17.7011L1285.54 19.5726L1275.39 17.7011L1285.54 15.8613L1295.72 17.7011Z" fill="#F5F5F5"/>
<path d="M1287.79 17.7011L1277.61 19.5726L1267.46 17.7011L1277.61 15.8613L1287.79 17.7011Z" fill="#F5F5F5"/>
<path d="M1319.51 25.6308L1309.33 27.5023L1299.18 25.6308L1309.33 23.791L1319.51 25.6308Z" fill="#F5F5F5"/>
<path d="M1327.44 25.6308L1317.26 27.5023L1307.11 25.6308L1317.26 23.791L1327.44 25.6308Z" fill="#F5F5F5"/>
<path d="M1335.37 33.5605L1325.19 35.432L1315.04 33.5605L1325.19 31.7207L1335.37 33.5605Z" fill="#F5F5F5"/>
<path d="M1343.3 33.5605L1333.12 35.432L1322.97 33.5605L1333.12 31.7207L1343.3 33.5605Z" fill="#F5F5F5"/>
<path d="M1343.3 9.76948L1333.12 11.641L1322.97 9.76948L1333.12 7.92969L1343.3 9.76948Z" fill="#F5F5F5"/>
<path d="M964.018 1.83979L953.836 3.7113L943.686 1.83979L953.836 0L964.018 1.83979Z" fill="#F5F5F5"/>
<path d="M971.949 1.83979L961.766 3.7113L951.616 1.83979L961.766 0L971.949 1.83979Z" fill="#F5F5F5"/>
<path d="M979.879 1.83979L969.697 3.7113L959.546 1.83979L969.697 0L979.879 1.83979Z" fill="#F5F5F5"/>
<path d="M1003.67 1.83979L993.487 3.7113L983.336 1.83979L993.487 0L1003.67 1.83979Z" fill="#F5F5F5"/>
<path d="M1011.6 1.83979L1001.42 3.7113L991.266 1.83979L1001.42 0L1011.6 1.83979Z" fill="#F5F5F5"/>
<path d="M1019.53 1.83979L1009.35 3.7113L999.197 1.83979L1009.35 0L1019.53 1.83979Z" fill="#F5F5F5"/>
<path d="M1027.46 1.83979L1017.28 3.7113L1007.13 1.83979L1017.28 0L1027.46 1.83979Z" fill="#F5F5F5"/>
<path d="M964.018 9.76948L953.836 11.641L943.686 9.76948L953.836 7.92969L964.018 9.76948Z" fill="#F5F5F5"/>
<path d="M971.949 9.76948L961.766 11.641L951.616 9.76948L961.766 7.92969L971.949 9.76948Z" fill="#F5F5F5"/>
<path d="M964.018 17.7011L953.836 19.5726L943.686 17.7011L953.836 15.8613L964.018 17.7011Z" fill="#F5F5F5"/>
<path d="M971.949 17.7011L961.766 19.5726L951.616 17.7011L961.766 15.8613L971.949 17.7011Z" fill="#F5F5F5"/>
<path d="M979.879 17.7011L969.697 19.5726L959.546 17.7011L969.697 15.8613L979.879 17.7011Z" fill="#F5F5F5"/>
<path d="M987.809 1.83979L977.627 3.7113L967.476 1.83979L977.627 0L987.809 1.83979Z" fill="#F5F5F5"/>
<path d="M987.809 17.7011L977.627 19.5726L967.476 17.7011L977.627 15.8613L987.809 17.7011Z" fill="#F5F5F5"/>
<path d="M995.739 1.83979L985.557 3.7113L975.406 1.83979L985.557 0L995.739 1.83979Z" fill="#F5F5F5"/>
<path d="M995.739 17.7011L985.557 19.5726L975.406 17.7011L985.557 15.8613L995.739 17.7011Z" fill="#F5F5F5"/>
<path d="M1003.67 17.7011L993.487 19.5726L983.336 17.7011L993.487 15.8613L1003.67 17.7011Z" fill="#F5F5F5"/>
<path d="M1011.6 17.7011L1001.42 19.5726L991.266 17.7011L1001.42 15.8613L1011.6 17.7011Z" fill="#F5F5F5"/>
<path d="M1019.53 17.7011L1009.35 19.5726L999.197 17.7011L1009.35 15.8613L1019.53 17.7011Z" fill="#F5F5F5"/>
<path d="M1027.46 17.7011L1017.28 19.5726L1007.13 17.7011L1017.28 15.8613L1027.46 17.7011Z" fill="#F5F5F5"/>
<path d="M1035.39 17.7011L1025.21 19.5726L1015.06 17.7011L1025.21 15.8613L1035.39 17.7011Z" fill="#F5F5F5"/>
<path d="M1035.39 25.6308L1025.21 27.5023L1015.06 25.6308L1025.21 23.791L1035.39 25.6308Z" fill="#F5F5F5"/>
<path d="M1027.46 25.6308L1017.28 27.5023L1007.13 25.6308L1017.28 23.791L1027.46 25.6308Z" fill="#F5F5F5"/>
<path d="M979.879 33.5605L969.697 35.432L959.546 33.5605L969.697 31.7207L979.879 33.5605Z" fill="#F5F5F5"/>
<path d="M971.949 33.5605L961.766 35.432L951.616 33.5605L961.766 31.7207L971.949 33.5605Z" fill="#F5F5F5"/>
<path d="M964.018 33.5605L953.836 35.432L943.686 33.5605L953.836 31.7207L964.018 33.5605Z" fill="#F5F5F5"/>
<path d="M987.809 33.5605L977.627 35.432L967.476 33.5605L977.627 31.7207L987.809 33.5605Z" fill="#F5F5F5"/>
<path d="M995.739 33.5605L985.557 35.432L975.406 33.5605L985.557 31.7207L995.739 33.5605Z" fill="#F5F5F5"/>
<path d="M1003.67 33.5605L993.487 35.432L983.336 33.5605L993.487 31.7207L1003.67 33.5605Z" fill="#F5F5F5"/>
<path d="M1011.6 33.5605L1001.42 35.432L991.266 33.5605L1001.42 31.7207L1011.6 33.5605Z" fill="#F5F5F5"/>
<path d="M1019.53 33.5605L1009.35 35.432L999.197 33.5605L1009.35 31.7207L1019.53 33.5605Z" fill="#F5F5F5"/>
<path d="M1027.46 33.5605L1017.28 35.432L1007.13 33.5605L1017.28 31.7207L1027.46 33.5605Z" fill="#F5F5F5"/>
<path d="M1035.39 1.83979L1025.21 3.7113L1015.06 1.83979L1025.21 0L1035.39 1.83979Z" fill="#F5F5F5"/>
<path d="M1035.39 33.5605L1025.21 35.432L1015.06 33.5605L1025.21 31.7207L1035.39 33.5605Z" fill="#F5F5F5"/>
<path d="M845.067 1.83979L834.884 3.7113L824.734 1.83979L834.884 0L845.067 1.83979Z" fill="#F5F5F5"/>
<path d="M852.997 1.83979L842.814 3.7113L832.664 1.83979L842.814 0L852.997 1.83979Z" fill="#F5F5F5"/>
<path d="M860.927 1.83979L850.745 3.7113L840.594 1.83979L850.745 0L860.927 1.83979Z" fill="#F5F5F5"/>
<path d="M868.857 1.83979L858.675 3.7113L848.524 1.83979L858.675 0L868.857 1.83979Z" fill="#F5F5F5"/>
<path d="M876.787 1.83979L866.605 3.7113L856.454 1.83979L866.605 0L876.787 1.83979Z" fill="#F5F5F5"/>
<path d="M884.717 1.83979L874.535 3.7113L864.384 1.83979L874.535 0L884.717 1.83979Z" fill="#F5F5F5"/>
<path d="M892.647 1.83979L882.465 3.7113L872.314 1.83979L882.465 0L892.647 1.83979Z" fill="#F5F5F5"/>
<path d="M900.577 1.83979L890.395 3.7113L880.245 1.83979L890.395 0L900.577 1.83979Z" fill="#F5F5F5"/>
<path d="M908.508 1.83979L898.325 3.7113L888.175 1.83979L898.325 0L908.508 1.83979Z" fill="#F5F5F5"/>
<path d="M916.438 1.83979L906.256 3.7113L896.105 1.83979L906.256 0L916.438 1.83979Z" fill="#F5F5F5"/>
<path d="M845.067 9.76948L834.884 11.641L824.734 9.76948L834.884 7.92969L845.067 9.76948Z" fill="#F5F5F5"/>
<path d="M852.997 9.76948L842.814 11.641L832.664 9.76948L842.814 7.92969L852.997 9.76948Z" fill="#F5F5F5"/>
<path d="M845.067 17.7011L834.884 19.5726L824.734 17.7011L834.884 15.8613L845.067 17.7011Z" fill="#F5F5F5"/>
<path d="M852.997 17.7011L842.814 19.5726L832.664 17.7011L842.814 15.8613L852.997 17.7011Z" fill="#F5F5F5"/>
<path d="M845.067 25.6308L834.884 27.5023L824.734 25.6308L834.884 23.791L845.067 25.6308Z" fill="#F5F5F5"/>
<path d="M852.997 25.6308L842.814 27.5023L832.664 25.6308L842.814 23.791L852.997 25.6308Z" fill="#F5F5F5"/>
<path d="M845.067 33.5605L834.884 35.432L824.734 33.5605L834.884 31.7207L845.067 33.5605Z" fill="#F5F5F5"/>
<path d="M852.997 33.5605L842.814 35.432L832.664 33.5605L842.814 31.7207L852.997 33.5605Z" fill="#F5F5F5"/>
<path d="M860.927 33.5605L850.745 35.432L840.594 33.5605L850.745 31.7207L860.927 33.5605Z" fill="#F5F5F5"/>
<path d="M868.857 33.5605L858.675 35.432L848.524 33.5605L858.675 31.7207L868.857 33.5605Z" fill="#F5F5F5"/>
<path d="M876.787 33.5605L866.605 35.432L856.454 33.5605L866.605 31.7207L876.787 33.5605Z" fill="#F5F5F5"/>
<path d="M884.717 33.5605L874.535 35.432L864.384 33.5605L874.535 31.7207L884.717 33.5605Z" fill="#F5F5F5"/>
<path d="M892.647 33.5605L882.465 35.432L872.314 33.5605L882.465 31.7207L892.647 33.5605Z" fill="#F5F5F5"/>
<path d="M900.577 33.5605L890.395 35.432L880.245 33.5605L890.395 31.7207L900.577 33.5605Z" fill="#F5F5F5"/>
<path d="M908.508 33.5605L898.325 35.432L888.175 33.5605L898.325 31.7207L908.508 33.5605Z" fill="#F5F5F5"/>
<path d="M916.438 33.5605L906.256 35.432L896.105 33.5605L906.256 31.7207L916.438 33.5605Z" fill="#F5F5F5"/>
<path d="M892.647 17.7011L882.465 19.5726L872.314 17.7011L882.465 15.8613L892.647 17.7011Z" fill="#F5F5F5"/>
<path d="M900.577 17.7011L890.395 19.5726L880.245 17.7011L890.395 15.8613L900.577 17.7011Z" fill="#F5F5F5"/>
<path d="M884.717 17.7011L874.535 19.5726L864.384 17.7011L874.535 15.8613L884.717 17.7011Z" fill="#F5F5F5"/>
<path d="M876.787 17.7011L866.605 19.5726L856.454 17.7011L866.605 15.8613L876.787 17.7011Z" fill="#F5F5F5"/>
<path d="M868.857 17.7011L858.675 19.5726L848.524 17.7011L858.675 15.8613L868.857 17.7011Z" fill="#F5F5F5"/>
<path d="M860.927 17.7011L850.745 19.5726L840.594 17.7011L850.745 15.8613L860.927 17.7011Z" fill="#F5F5F5"/>
<path d="M1375.02 1.83979L1364.84 3.7113L1354.69 1.83979L1364.84 0L1375.02 1.83979Z" fill="#F5F5F5"/>
<path d="M1382.95 1.83979L1372.77 3.7113L1362.62 1.83979L1372.77 0L1382.95 1.83979Z" fill="#F5F5F5"/>
<path d="M1390.88 1.83979L1380.7 3.7113L1370.55 1.83979L1380.7 0L1390.88 1.83979Z" fill="#F5F5F5"/>
<path d="M1398.81 1.83979L1388.63 3.7113L1378.48 1.83979L1388.63 0L1398.81 1.83979Z" fill="#F5F5F5"/>
<path d="M1406.74 1.83979L1396.56 3.7113L1386.41 1.83979L1396.56 0L1406.74 1.83979Z" fill="#F5F5F5"/>
<path d="M1414.67 1.83979L1404.49 3.7113L1394.34 1.83979L1404.49 0L1414.67 1.83979Z" fill="#F5F5F5"/>
<path d="M1422.6 1.83979L1412.42 3.7113L1402.27 1.83979L1412.42 0L1422.6 1.83979Z" fill="#F5F5F5"/>
<path d="M1430.53 1.83979L1420.35 3.7113L1410.2 1.83979L1420.35 0L1430.53 1.83979Z" fill="#F5F5F5"/>
<path d="M1438.46 1.83979L1428.28 3.7113L1418.13 1.83979L1428.28 0L1438.46 1.83979Z" fill="#F5F5F5"/>
<path d="M1446.39 1.83979L1436.21 3.7113L1426.06 1.83979L1436.21 0L1446.39 1.83979Z" fill="#F5F5F5"/>
<path d="M1375.02 9.76948L1364.84 11.641L1354.69 9.76948L1364.84 7.92969L1375.02 9.76948Z" fill="#F5F5F5"/>
<path d="M1382.95 9.76948L1372.77 11.641L1362.62 9.76948L1372.77 7.92969L1382.95 9.76948Z" fill="#F5F5F5"/>
<path d="M1375.02 17.7011L1364.84 19.5726L1354.69 17.7011L1364.84 15.8613L1375.02 17.7011Z" fill="#F5F5F5"/>
<path d="M1382.95 17.7011L1372.77 19.5726L1362.62 17.7011L1372.77 15.8613L1382.95 17.7011Z" fill="#F5F5F5"/>
<path d="M1375.02 25.6308L1364.84 27.5023L1354.69 25.6308L1364.84 23.791L1375.02 25.6308Z" fill="#F5F5F5"/>
<path d="M1382.95 25.6308L1372.77 27.5023L1362.62 25.6308L1372.77 23.791L1382.95 25.6308Z" fill="#F5F5F5"/>
<path d="M1375.02 33.5605L1364.84 35.432L1354.69 33.5605L1364.84 31.7207L1375.02 33.5605Z" fill="#F5F5F5"/>
<path d="M1382.95 33.5605L1372.77 35.432L1362.62 33.5605L1372.77 31.7207L1382.95 33.5605Z" fill="#F5F5F5"/>
<path d="M1390.88 33.5605L1380.7 35.432L1370.55 33.5605L1380.7 31.7207L1390.88 33.5605Z" fill="#F5F5F5"/>
<path d="M1398.81 33.5605L1388.63 35.432L1378.48 33.5605L1388.63 31.7207L1398.81 33.5605Z" fill="#F5F5F5"/>
<path d="M1406.74 33.5605L1396.56 35.432L1386.41 33.5605L1396.56 31.7207L1406.74 33.5605Z" fill="#F5F5F5"/>
<path d="M1414.67 33.5605L1404.49 35.432L1394.34 33.5605L1404.49 31.7207L1414.67 33.5605Z" fill="#F5F5F5"/>
<path d="M1422.6 33.5605L1412.42 35.432L1402.27 33.5605L1412.42 31.7207L1422.6 33.5605Z" fill="#F5F5F5"/>
<path d="M1430.53 33.5605L1420.35 35.432L1410.2 33.5605L1420.35 31.7207L1430.53 33.5605Z" fill="#F5F5F5"/>
<path d="M1438.46 33.5605L1428.28 35.432L1418.13 33.5605L1428.28 31.7207L1438.46 33.5605Z" fill="#F5F5F5"/>
<path d="M1446.39 33.5605L1436.21 35.432L1426.06 33.5605L1436.21 31.7207L1446.39 33.5605Z" fill="#F5F5F5"/>
<path d="M1422.6 17.7011L1412.42 19.5726L1402.27 17.7011L1412.42 15.8613L1422.6 17.7011Z" fill="#F5F5F5"/>
<path d="M1430.53 17.7011L1420.35 19.5726L1410.2 17.7011L1420.35 15.8613L1430.53 17.7011Z" fill="#F5F5F5"/>
<path d="M1414.67 17.7011L1404.49 19.5726L1394.34 17.7011L1404.49 15.8613L1414.67 17.7011Z" fill="#F5F5F5"/>
<path d="M1406.74 17.7011L1396.56 19.5726L1386.41 17.7011L1396.56 15.8613L1406.74 17.7011Z" fill="#F5F5F5"/>
<path d="M1398.81 17.7011L1388.63 19.5726L1378.48 17.7011L1388.63 15.8613L1398.81 17.7011Z" fill="#F5F5F5"/>
<path d="M1390.88 17.7011L1380.7 19.5726L1370.55 17.7011L1380.7 15.8613L1390.88 17.7011Z" fill="#F5F5F5"/>
<path d="M1584.47 25.6308L1574.32 27.5023L1564.14 25.6308L1574.32 23.791L1584.47 25.6308Z" fill="#F5F5F5"/>
<path d="M1592.4 25.6308L1582.25 27.5023L1572.07 25.6308L1582.25 23.791L1592.4 25.6308Z" fill="#F5F5F5"/>
<path d="M1647.91 25.6308L1637.76 27.5023L1627.58 25.6308L1637.76 23.791L1647.91 25.6308Z" fill="#F5F5F5"/>
<path d="M1655.84 25.6308L1645.69 27.5023L1635.51 25.6308L1645.69 23.791L1655.84 25.6308Z" fill="#F5F5F5"/>
<path d="M1584.47 33.5605L1574.32 35.432L1564.14 33.5605L1574.32 31.7207L1584.47 33.5605Z" fill="#F5F5F5"/>
<path d="M1592.4 33.5605L1582.25 35.432L1572.07 33.5605L1582.25 31.7207L1592.4 33.5605Z" fill="#F5F5F5"/>
<path d="M1655.84 33.5605L1645.69 35.432L1635.51 33.5605L1645.69 31.7207L1655.84 33.5605Z" fill="#F5F5F5"/>
<path d="M1647.91 33.5605L1637.76 35.432L1627.58 33.5605L1637.76 31.7207L1647.91 33.5605Z" fill="#F5F5F5"/>
<path d="M1647.91 17.7011L1637.76 19.5726L1627.58 17.7011L1637.76 15.8613L1647.91 17.7011Z" fill="#F5F5F5"/>
<path d="M1655.84 17.7011L1645.69 19.5726L1635.51 17.7011L1645.69 15.8613L1655.84 17.7011Z" fill="#F5F5F5"/>
<path d="M1647.91 9.76948L1637.76 11.641L1627.58 9.76948L1637.76 7.92969L1647.91 9.76948Z" fill="#F5F5F5"/>
<path d="M1655.84 9.76948L1645.69 11.641L1635.51 9.76948L1645.69 7.92969L1655.84 9.76948Z" fill="#F5F5F5"/>
<path d="M1647.91 1.83979L1637.76 3.7113L1627.58 1.83979L1637.76 0L1647.91 1.83979Z" fill="#F5F5F5"/>
<path d="M1639.98 1.83979L1629.83 3.7113L1619.65 1.83979L1629.83 0L1639.98 1.83979Z" fill="#F5F5F5"/>
<path d="M1632.05 1.83979L1621.9 3.7113L1611.72 1.83979L1621.9 0L1632.05 1.83979Z" fill="#F5F5F5"/>
<path d="M1624.12 1.83979L1613.97 3.7113L1603.79 1.83979L1613.97 0L1624.12 1.83979Z" fill="#F5F5F5"/>
<path d="M1616.19 1.83979L1606.04 3.7113L1595.86 1.83979L1606.04 0L1616.19 1.83979Z" fill="#F5F5F5"/>
<path d="M1608.26 1.83979L1598.11 3.7113L1587.93 1.83979L1598.11 0L1608.26 1.83979Z" fill="#F5F5F5"/>
<path d="M1600.33 1.83979L1590.18 3.7113L1580 1.83979L1590.18 0L1600.33 1.83979Z" fill="#F5F5F5"/>
<path d="M1655.84 1.83979L1645.69 3.7113L1635.51 1.83979L1645.69 0L1655.84 1.83979Z" fill="#F5F5F5"/>
<path d="M1624.12 17.7011L1613.97 19.5726L1603.79 17.7011L1613.97 15.8613L1624.12 17.7011Z" fill="#F5F5F5"/>
<path d="M1632.05 17.7011L1621.9 19.5726L1611.72 17.7011L1621.9 15.8613L1632.05 17.7011Z" fill="#F5F5F5"/>
<path d="M1639.98 17.7011L1629.83 19.5726L1619.65 17.7011L1629.83 15.8613L1639.98 17.7011Z" fill="#F5F5F5"/>
<path d="M1616.19 17.7011L1606.04 19.5726L1595.86 17.7011L1606.04 15.8613L1616.19 17.7011Z" fill="#F5F5F5"/>
<path d="M1608.26 17.7011L1598.11 19.5726L1587.93 17.7011L1598.11 15.8613L1608.26 17.7011Z" fill="#F5F5F5"/>
<path d="M1600.33 17.7011L1590.18 19.5726L1580 17.7011L1590.18 15.8613L1600.33 17.7011Z" fill="#F5F5F5"/>
<path d="M1592.4 17.7011L1582.25 19.5726L1572.07 17.7011L1582.25 15.8613L1592.4 17.7011Z" fill="#F5F5F5"/>
<path d="M1584.47 17.7011L1574.32 19.5726L1564.14 17.7011L1574.32 15.8613L1584.47 17.7011Z" fill="#F5F5F5"/>
<path d="M1592.4 9.76948L1582.25 11.641L1572.07 9.76948L1582.25 7.92969L1592.4 9.76948Z" fill="#F5F5F5"/>
<path d="M1584.47 9.76948L1574.32 11.641L1564.14 9.76948L1574.32 7.92969L1584.47 9.76948Z" fill="#F5F5F5"/>
<path d="M1592.4 1.83979L1582.25 3.7113L1572.07 1.83979L1582.25 0L1592.4 1.83979Z" fill="#F5F5F5"/>
<path d="M1584.47 1.83979L1574.32 3.7113L1564.14 1.83979L1574.32 0L1584.47 1.83979Z" fill="#F5F5F5"/>
<path d="M1481.38 1.83979L1471.23 3.7113L1461.05 1.83979L1471.23 0L1481.38 1.83979Z" fill="#F5F5F5"/>
<path d="M1489.31 1.83979L1479.16 3.7113L1468.98 1.83979L1479.16 0L1489.31 1.83979Z" fill="#F5F5F5"/>
<path d="M1481.38 9.76948L1471.23 11.641L1461.05 9.76948L1471.23 7.92969L1481.38 9.76948Z" fill="#F5F5F5"/>
<path d="M1489.31 9.76948L1479.16 11.641L1468.98 9.76948L1479.16 7.92969L1489.31 9.76948Z" fill="#F5F5F5"/>
<path d="M1497.24 9.76948L1487.09 11.641L1476.91 9.76948L1487.09 7.92969L1497.24 9.76948Z" fill="#F5F5F5"/>
<path d="M1505.17 9.76948L1495.02 11.641L1484.84 9.76948L1495.02 7.92969L1505.17 9.76948Z" fill="#F5F5F5"/>
<path d="M1505.17 17.7011L1495.02 19.5726L1484.84 17.7011L1495.02 15.8613L1505.17 17.7011Z" fill="#F5F5F5"/>
<path d="M1513.1 17.7011L1502.95 19.5726L1492.77 17.7011L1502.95 15.8613L1513.1 17.7011Z" fill="#F5F5F5"/>
<path d="M1521.03 17.7011L1510.88 19.5726L1500.7 17.7011L1510.88 15.8613L1521.03 17.7011Z" fill="#F5F5F5"/>
<path d="M1513.1 25.6308L1502.95 27.5023L1492.77 25.6308L1502.95 23.791L1513.1 25.6308Z" fill="#F5F5F5"/>
<path d="M1521.03 25.6308L1510.88 27.5023L1500.7 25.6308L1510.88 23.791L1521.03 25.6308Z" fill="#F5F5F5"/>
<path d="M1528.96 17.7011L1518.81 19.5726L1508.63 17.7011L1518.81 15.8613L1528.96 17.7011Z" fill="#F5F5F5"/>
<path d="M1481.38 17.7011L1471.23 19.5726L1461.05 17.7011L1471.23 15.8613L1481.38 17.7011Z" fill="#F5F5F5"/>
<path d="M1489.31 17.7011L1479.16 19.5726L1468.98 17.7011L1479.16 15.8613L1489.31 17.7011Z" fill="#F5F5F5"/>
<path d="M1481.38 25.6308L1471.23 27.5023L1461.05 25.6308L1471.23 23.791L1481.38 25.6308Z" fill="#F5F5F5"/>
<path d="M1489.31 25.6308L1479.16 27.5023L1468.98 25.6308L1479.16 23.791L1489.31 25.6308Z" fill="#F5F5F5"/>
<path d="M1481.38 33.5605L1471.23 35.432L1461.05 33.5605L1471.23 31.7207L1481.38 33.5605Z" fill="#F5F5F5"/>
<path d="M1489.31 33.5605L1479.16 35.432L1468.98 33.5605L1479.16 31.7207L1489.31 33.5605Z" fill="#F5F5F5"/>
<path d="M1552.75 33.5605L1542.6 35.432L1532.42 33.5605L1542.6 31.7207L1552.75 33.5605Z" fill="#F5F5F5"/>
<path d="M1544.82 33.5605L1534.67 35.432L1524.49 33.5605L1534.67 31.7207L1544.82 33.5605Z" fill="#F5F5F5"/>
<path d="M1552.75 25.6308L1542.6 27.5023L1532.42 25.6308L1542.6 23.791L1552.75 25.6308Z" fill="#F5F5F5"/>
<path d="M1544.82 25.6308L1534.67 27.5023L1524.49 25.6308L1534.67 23.791L1544.82 25.6308Z" fill="#F5F5F5"/>
<path d="M1552.75 17.7011L1542.6 19.5726L1532.42 17.7011L1542.6 15.8613L1552.75 17.7011Z" fill="#F5F5F5"/>
<path d="M1544.82 17.7011L1534.67 19.5726L1524.49 17.7011L1534.67 15.8613L1544.82 17.7011Z" fill="#F5F5F5"/>
<path d="M1552.75 9.76948L1542.6 11.641L1532.42 9.76948L1542.6 7.92969L1552.75 9.76948Z" fill="#F5F5F5"/>
<path d="M1544.82 9.76948L1534.67 11.641L1524.49 9.76948L1534.67 7.92969L1544.82 9.76948Z" fill="#F5F5F5"/>
<path d="M1536.89 9.76948L1526.74 11.641L1516.56 9.76948L1526.74 7.92969L1536.89 9.76948Z" fill="#F5F5F5"/>
<path d="M1528.96 9.76948L1518.81 11.641L1508.63 9.76948L1518.81 7.92969L1528.96 9.76948Z" fill="#F5F5F5"/>
<path d="M1552.75 1.83979L1542.6 3.7113L1532.42 1.83979L1542.6 0L1552.75 1.83979Z" fill="#F5F5F5"/>
<path d="M1544.82 1.83979L1534.67 3.7113L1524.49 1.83979L1534.67 0L1544.82 1.83979Z" fill="#F5F5F5"/>
<path d="M329.608 1.83979L319.426 3.7113L309.275 1.83979L319.426 0L329.608 1.83979Z" fill="#F5F5F5"/>
<path d="M337.538 1.83979L327.356 3.7113L317.205 1.83979L327.356 0L337.538 1.83979Z" fill="#F5F5F5"/>
<path d="M345.468 1.83979L335.286 3.7113L325.135 1.83979L335.286 0L345.468 1.83979Z" fill="#F5F5F5"/>
<path d="M353.399 1.83979L343.216 3.7113L333.066 1.83979L343.216 0L353.399 1.83979Z" fill="#F5F5F5"/>
<path d="M353.399 9.76948L343.216 11.641L333.066 9.76948L343.216 7.92969L353.399 9.76948Z" fill="#F5F5F5"/>
<path d="M361.328 9.76948L351.146 11.641L340.996 9.76948L351.146 7.92969L361.328 9.76948Z" fill="#F5F5F5"/>
<path d="M361.328 17.7011L351.146 19.5726L340.996 17.7011L351.146 15.8613L361.328 17.7011Z" fill="#F5F5F5"/>
<path d="M369.259 17.7011L359.076 19.5726L348.926 17.7011L359.076 15.8613L369.259 17.7011Z" fill="#F5F5F5"/>
<path d="M369.259 25.6308L359.076 27.5023L348.926 25.6308L359.076 23.791L369.259 25.6308Z" fill="#F5F5F5"/>
<path d="M377.189 25.6308L367.007 27.5023L356.856 25.6308L367.007 23.791L377.189 25.6308Z" fill="#F5F5F5"/>
<path d="M377.189 33.5605L367.007 35.432L356.856 33.5605L367.007 31.7207L377.189 33.5605Z" fill="#F5F5F5"/>
<path d="M385.119 33.5605L374.937 35.432L364.786 33.5605L374.937 31.7207L385.119 33.5605Z" fill="#F5F5F5"/>
<path d="M393.049 33.5605L382.867 35.432L372.716 33.5605L382.867 31.7207L393.049 33.5605Z" fill="#F5F5F5"/>
<path d="M400.979 33.5605L390.797 35.432L380.646 33.5605L390.797 31.7207L400.979 33.5605Z" fill="#F5F5F5"/>
<path d="M393.049 25.6308L382.867 27.5023L372.716 25.6308L382.867 23.791L393.049 25.6308Z" fill="#F5F5F5"/>
<path d="M400.979 25.6308L390.797 27.5023L380.646 25.6308L390.797 23.791L400.979 25.6308Z" fill="#F5F5F5"/>
<path d="M393.049 17.7011L382.867 19.5726L372.716 17.7011L382.867 15.8613L393.049 17.7011Z" fill="#F5F5F5"/>
<path d="M400.979 17.7011L390.797 19.5726L380.646 17.7011L390.797 15.8613L400.979 17.7011Z" fill="#F5F5F5"/>
<path d="M393.049 9.76948L382.867 11.641L372.716 9.76948L382.867 7.92969L393.049 9.76948Z" fill="#F5F5F5"/>
<path d="M400.979 9.76948L390.797 11.641L380.646 9.76948L390.797 7.92969L400.979 9.76948Z" fill="#F5F5F5"/>
<path d="M393.049 1.83979L382.867 3.7113L372.716 1.83979L382.867 0L393.049 1.83979Z" fill="#F5F5F5"/>
<path d="M400.979 1.83979L390.797 3.7113L380.646 1.83979L390.797 0L400.979 1.83979Z" fill="#F5F5F5"/>
<path d="M464.42 1.83979L454.238 3.7113L444.087 1.83979L454.238 0L464.42 1.83979Z" fill="#F5F5F5"/>
<path d="M472.35 1.83979L462.168 3.7113L452.018 1.83979L462.168 0L472.35 1.83979Z" fill="#F5F5F5"/>
<path d="M448.56 1.83979L438.378 3.7113L428.227 1.83979L438.378 0L448.56 1.83979Z" fill="#F5F5F5"/>
<path d="M440.63 1.83979L430.448 3.7113L420.297 1.83979L430.448 0L440.63 1.83979Z" fill="#F5F5F5"/>
<path d="M456.49 1.83979L446.308 3.7113L436.157 1.83979L446.308 0L456.49 1.83979Z" fill="#F5F5F5"/>
<path d="M480.28 1.83979L470.098 3.7113L459.948 1.83979L470.098 0L480.28 1.83979Z" fill="#F5F5F5"/>
<path d="M488.211 1.83979L478.028 3.7113L467.878 1.83979L478.028 0L488.211 1.83979Z" fill="#F5F5F5"/>
<path d="M496.141 1.83979L485.958 3.7113L475.808 1.83979L485.958 0L496.141 1.83979Z" fill="#F5F5F5"/>
<path d="M464.42 33.5605L454.238 35.432L444.087 33.5605L454.238 31.7207L464.42 33.5605Z" fill="#F5F5F5"/>
<path d="M472.35 33.5605L462.168 35.432L452.018 33.5605L462.168 31.7207L472.35 33.5605Z" fill="#F5F5F5"/>
<path d="M448.56 33.5605L438.378 35.432L428.227 33.5605L438.378 31.7207L448.56 33.5605Z" fill="#F5F5F5"/>
<path d="M440.63 33.5605L430.448 35.432L420.297 33.5605L430.448 31.7207L440.63 33.5605Z" fill="#F5F5F5"/>
<path d="M432.7 1.83979L422.517 3.7113L412.367 1.83979L422.517 0L432.7 1.83979Z" fill="#F5F5F5"/>
<path d="M432.7 33.5605L422.517 35.432L412.367 33.5605L422.517 31.7207L432.7 33.5605Z" fill="#F5F5F5"/>
<path d="M456.49 33.5605L446.308 35.432L436.157 33.5605L446.308 31.7207L456.49 33.5605Z" fill="#F5F5F5"/>
<path d="M480.28 33.5605L470.098 35.432L459.948 33.5605L470.098 31.7207L480.28 33.5605Z" fill="#F5F5F5"/>
<path d="M488.211 33.5605L478.028 35.432L467.878 33.5605L478.028 31.7207L488.211 33.5605Z" fill="#F5F5F5"/>
<path d="M496.141 33.5605L485.958 35.432L475.808 33.5605L485.958 31.7207L496.141 33.5605Z" fill="#F5F5F5"/>
<path d="M504.071 1.83979L493.889 3.7113L483.738 1.83979L493.889 0L504.071 1.83979Z" fill="#F5F5F5"/>
<path d="M504.071 33.5605L493.889 35.432L483.738 33.5605L493.889 31.7207L504.071 33.5605Z" fill="#F5F5F5"/>
<path d="M464.42 9.76948L454.238 11.641L444.087 9.76948L454.238 7.92969L464.42 9.76948Z" fill="#F5F5F5"/>
<path d="M472.35 9.76948L462.168 11.641L452.018 9.76948L462.168 7.92969L472.35 9.76948Z" fill="#F5F5F5"/>
<path d="M464.42 17.7011L454.238 19.5726L444.087 17.7011L454.238 15.8613L464.42 17.7011Z" fill="#F5F5F5"/>
<path d="M472.35 17.7011L462.168 19.5726L452.018 17.7011L462.168 15.8613L472.35 17.7011Z" fill="#F5F5F5"/>
<path d="M464.42 25.6308L454.238 27.5023L444.087 25.6308L454.238 23.791L464.42 25.6308Z" fill="#F5F5F5"/>
<path d="M472.35 25.6308L462.168 27.5023L452.018 25.6308L462.168 23.791L472.35 25.6308Z" fill="#F5F5F5"/>
<path d="M670.604 1.83979L660.421 3.7113L650.271 1.83979L660.421 0L670.604 1.83979Z" fill="#F5F5F5"/>
<path d="M678.534 1.83979L668.351 3.7113L658.201 1.83979L668.351 0L678.534 1.83979Z" fill="#F5F5F5"/>
<path d="M654.744 1.83979L644.561 3.7113L634.411 1.83979L644.561 0L654.744 1.83979Z" fill="#F5F5F5"/>
<path d="M646.813 1.83979L636.631 3.7113L626.48 1.83979L636.631 0L646.813 1.83979Z" fill="#F5F5F5"/>
<path d="M662.673 1.83979L652.491 3.7113L642.341 1.83979L652.491 0L662.673 1.83979Z" fill="#F5F5F5"/>
<path d="M686.464 1.83979L676.282 3.7113L666.131 1.83979L676.282 0L686.464 1.83979Z" fill="#F5F5F5"/>
<path d="M694.394 1.83979L684.212 3.7113L674.061 1.83979L684.212 0L694.394 1.83979Z" fill="#F5F5F5"/>
<path d="M702.324 1.83979L692.142 3.7113L681.991 1.83979L692.142 0L702.324 1.83979Z" fill="#F5F5F5"/>
<path d="M670.604 33.5605L660.421 35.432L650.271 33.5605L660.421 31.7207L670.604 33.5605Z" fill="#F5F5F5"/>
<path d="M678.534 33.5605L668.351 35.432L658.201 33.5605L668.351 31.7207L678.534 33.5605Z" fill="#F5F5F5"/>
<path d="M654.744 33.5605L644.561 35.432L634.411 33.5605L644.561 31.7207L654.744 33.5605Z" fill="#F5F5F5"/>
<path d="M646.813 33.5605L636.631 35.432L626.48 33.5605L636.631 31.7207L646.813 33.5605Z" fill="#F5F5F5"/>
<path d="M638.883 1.83979L628.701 3.7113L618.55 1.83979L628.701 0L638.883 1.83979Z" fill="#F5F5F5"/>
<path d="M638.883 33.5605L628.701 35.432L618.55 33.5605L628.701 31.7207L638.883 33.5605Z" fill="#F5F5F5"/>
<path d="M662.673 33.5605L652.491 35.432L642.341 33.5605L652.491 31.7207L662.673 33.5605Z" fill="#F5F5F5"/>
<path d="M686.464 33.5605L676.282 35.432L666.131 33.5605L676.282 31.7207L686.464 33.5605Z" fill="#F5F5F5"/>
<path d="M694.394 33.5605L684.212 35.432L674.061 33.5605L684.212 31.7207L694.394 33.5605Z" fill="#F5F5F5"/>
<path d="M702.324 33.5605L692.142 35.432L681.991 33.5605L692.142 31.7207L702.324 33.5605Z" fill="#F5F5F5"/>
<path d="M710.254 1.83979L700.072 3.7113L689.921 1.83979L700.072 0L710.254 1.83979Z" fill="#F5F5F5"/>
<path d="M710.254 33.5605L700.072 35.432L689.921 33.5605L700.072 31.7207L710.254 33.5605Z" fill="#F5F5F5"/>
<path d="M670.604 9.76948L660.421 11.641L650.271 9.76948L660.421 7.92969L670.604 9.76948Z" fill="#F5F5F5"/>
<path d="M678.534 9.76948L668.351 11.641L658.201 9.76948L668.351 7.92969L678.534 9.76948Z" fill="#F5F5F5"/>
<path d="M670.604 17.7011L660.421 19.5726L650.271 17.7011L660.421 15.8613L670.604 17.7011Z" fill="#F5F5F5"/>
<path d="M678.534 17.7011L668.351 19.5726L658.201 17.7011L668.351 15.8613L678.534 17.7011Z" fill="#F5F5F5"/>
<path d="M670.604 25.6308L660.421 27.5023L650.271 25.6308L660.421 23.791L670.604 25.6308Z" fill="#F5F5F5"/>
<path d="M678.534 25.6308L668.351 27.5023L658.201 25.6308L668.351 23.791L678.534 25.6308Z" fill="#F5F5F5"/>
<path d="M741.975 1.83979L731.793 3.7113L721.642 1.83979L731.793 0L741.975 1.83979Z" fill="#F5F5F5"/>
<path d="M749.905 1.83979L739.723 3.7113L729.572 1.83979L739.723 0L749.905 1.83979Z" fill="#F5F5F5"/>
<path d="M749.905 9.76948L739.723 11.641L729.572 9.76948L739.723 7.92969L749.905 9.76948Z" fill="#F5F5F5"/>
<path d="M757.835 9.76948L747.653 11.641L737.502 9.76948L747.653 7.92969L757.835 9.76948Z" fill="#F5F5F5"/>
<path d="M757.835 17.7011L747.653 19.5726L737.502 17.7011L747.653 15.8613L757.835 17.7011Z" fill="#F5F5F5"/>
<path d="M765.765 17.7011L755.583 19.5726L745.432 17.7011L755.583 15.8613L765.765 17.7011Z" fill="#F5F5F5"/>
<path d="M765.765 25.6308L755.583 27.5023L745.432 25.6308L755.583 23.791L765.765 25.6308Z" fill="#F5F5F5"/>
<path d="M773.695 25.6308L763.513 27.5023L753.363 25.6308L763.513 23.791L773.695 25.6308Z" fill="#F5F5F5"/>
<path d="M773.695 33.5605L763.513 35.432L753.363 33.5605L763.513 31.7207L773.695 33.5605Z" fill="#F5F5F5"/>
<path d="M773.695 33.5605L763.513 35.432L753.363 33.5605L763.513 31.7207L773.695 33.5605Z" fill="#F5F5F5"/>
<path d="M781.625 33.5605L771.443 35.432L761.292 33.5605L771.443 31.7207L781.625 33.5605Z" fill="#F5F5F5"/>
<path d="M781.625 25.6308L771.443 27.5023L761.292 25.6308L771.443 23.791L781.625 25.6308Z" fill="#F5F5F5"/>
<path d="M789.556 25.6308L779.373 27.5023L769.223 25.6308L779.373 23.791L789.556 25.6308Z" fill="#F5F5F5"/>
<path d="M781.625 33.5605L771.443 35.432L761.292 33.5605L771.443 31.7207L781.625 33.5605Z" fill="#F5F5F5"/>
<path d="M789.556 17.7011L779.373 19.5726L769.223 17.7011L779.373 15.8613L789.556 17.7011Z" fill="#F5F5F5"/>
<path d="M797.486 17.7011L787.303 19.5726L777.153 17.7011L787.303 15.8613L797.486 17.7011Z" fill="#F5F5F5"/>
<path d="M797.486 9.76948L787.303 11.641L777.153 9.76948L787.303 7.92969L797.486 9.76948Z" fill="#F5F5F5"/>
<path d="M805.416 9.76948L795.234 11.641L785.083 9.76948L795.234 7.92969L805.416 9.76948Z" fill="#F5F5F5"/>
<path d="M805.416 1.83979L795.234 3.7113L785.083 1.83979L795.234 0L805.416 1.83979Z" fill="#F5F5F5"/>
<path d="M813.346 1.83979L803.164 3.7113L793.013 1.83979L803.164 0L813.346 1.83979Z" fill="#F5F5F5"/>
<path d="M567.512 1.83979L557.33 3.7113L547.179 1.83979L557.33 0L567.512 1.83979Z" fill="#F5F5F5"/>
<path d="M575.442 1.83979L565.26 3.7113L555.109 1.83979L565.26 0L575.442 1.83979Z" fill="#F5F5F5"/>
<path d="M551.652 1.83979L541.469 3.7113L531.319 1.83979L541.469 0L551.652 1.83979Z" fill="#F5F5F5"/>
<path d="M543.722 1.83979L533.539 3.7113L523.389 1.83979L533.539 0L543.722 1.83979Z" fill="#F5F5F5"/>
<path d="M535.791 1.83979L525.609 3.7113L515.458 1.83979L525.609 0L535.791 1.83979Z" fill="#F5F5F5"/>
<path d="M559.582 1.83979L549.4 3.7113L539.249 1.83979L549.4 0L559.582 1.83979Z" fill="#F5F5F5"/>
<path d="M583.372 1.83979L573.19 3.7113L563.039 1.83979L573.19 0L583.372 1.83979Z" fill="#F5F5F5"/>
<path d="M591.302 1.83979L581.12 3.7113L570.969 1.83979L581.12 0L591.302 1.83979Z" fill="#F5F5F5"/>
<path d="M599.232 1.83979L589.05 3.7113L578.899 1.83979L589.05 0L599.232 1.83979Z" fill="#F5F5F5"/>
<path d="M607.162 1.83979L596.98 3.7113L586.83 1.83979L596.98 0L607.162 1.83979Z" fill="#F5F5F5"/>
<path d="M567.512 33.5605L557.33 35.432L547.179 33.5605L557.33 31.7207L567.512 33.5605Z" fill="#F5F5F5"/>
<path d="M575.442 33.5605L565.26 35.432L555.109 33.5605L565.26 31.7207L575.442 33.5605Z" fill="#F5F5F5"/>
<path d="M567.512 9.76948L557.33 11.641L547.179 9.76948L557.33 7.92969L567.512 9.76948Z" fill="#F5F5F5"/>
<path d="M575.442 9.76948L565.26 11.641L555.109 9.76948L565.26 7.92969L575.442 9.76948Z" fill="#F5F5F5"/>
<path d="M567.512 17.7011L557.33 19.5726L547.179 17.7011L557.33 15.8613L567.512 17.7011Z" fill="#F5F5F5"/>
<path d="M575.442 17.7011L565.26 19.5726L555.109 17.7011L565.26 15.8613L575.442 17.7011Z" fill="#F5F5F5"/>
<path d="M567.512 25.6308L557.33 27.5023L547.179 25.6308L557.33 23.791L567.512 25.6308Z" fill="#F5F5F5"/>
<path d="M575.442 25.6308L565.26 27.5023L555.109 25.6308L565.26 23.791L575.442 25.6308Z" fill="#F5F5F5"/>
<path d="M329.608 9.76948L319.426 11.641L309.275 9.76948L319.426 7.92969L329.608 9.76948Z" fill="#F5F5F5"/>
<path d="M337.538 9.76948L327.356 11.641L317.205 9.76948L327.356 7.92969L337.538 9.76948Z" fill="#F5F5F5"/>
<path d="M329.608 17.7011L319.426 19.5726L309.275 17.7011L319.426 15.8613L329.608 17.7011Z" fill="#F5F5F5"/>
<path d="M337.538 17.7011L327.356 19.5726L317.205 17.7011L327.356 15.8613L337.538 17.7011Z" fill="#F5F5F5"/>
<path d="M329.608 25.6308L319.426 27.5023L309.275 25.6308L319.426 23.791L329.608 25.6308Z" fill="#F5F5F5"/>
<path d="M337.538 25.6308L327.356 27.5023L317.205 25.6308L327.356 23.791L337.538 25.6308Z" fill="#F5F5F5"/>
<path d="M329.608 33.5605L319.426 35.432L309.275 33.5605L319.426 31.7207L329.608 33.5605Z" fill="#F5F5F5"/>
<path d="M337.538 33.5605L327.356 35.432L317.205 33.5605L327.356 31.7207L337.538 33.5605Z" fill="#F5F5F5"/>
</svg>
